<?xml version="1.0" encoding="UTF-8"?>
<svg width="200px" height="230px" viewBox="0 0 200 230" version="1.1" xmlns="http://www.w3.org/2000/svg"
>
    <!-- Generator: Sketch 48.2 (47327) - http://www.bohemiancoding.com/sketch -->
    <title>Icon</title>
    <desc>Created with Sketch.</desc>
    <defs>
        <linearGradient x1="0%" y1="0%" x2="50%" y2="100%" id="linearGradient-1">
            <stop stop-color="#61E8FA" offset="0%"></stop>
            <stop stop-color="#087DD6" offset="100%"></stop>
        </linearGradient>
    </defs>
    <g id="Page-1" stroke="none" stroke-width="1" fill="none" fill-rule="evenodd">
        <g id="Salesforce">
            <g id="Icon">
                <polygon id="Polygon" fill="url(#linearGradient-1)" fill-rule="nonzero"
                         points="100 -6.61623534e-15 200 57.5 200 172.5 100 230 0 172.5 0 57.5"></polygon>
                <g id="Salesforce-Copy" transform="translate(32.000000, 65.000000)">
                    <path d="M57.1059944,85.9303501 C61.519797,90.5293608 67.6648084,93.3815663 74.4609726,93.3815663 C83.495231,93.3815663 91.3772998,88.3439047 95.5747013,80.8653947 C99.222327,82.4952264 103.259865,83.4017715 107.507955,83.4017715 C123.802372,83.4017715 137.012587,70.0765327 137.012587,53.6397971 C137.012587,37.2011119 123.802372,23.8758731 107.507955,23.8758731 C105.519404,23.8758731 103.575693,24.0747282 101.696318,24.4548923 C97.9999532,17.8614823 90.956195,13.406739 82.871372,13.406739 C79.4869368,13.406739 76.2857602,14.1885123 73.4355043,15.5785482 C69.6884511,6.76458995 60.9583239,0.584486529 50.7835732,0.584486529 C40.1877176,0.584486529 31.1573583,7.28902144 27.6910416,16.6917466 C26.1762339,16.3700693 24.6068386,16.2024072 22.9965025,16.2024072 C10.3809034,16.2024072 0.153514551,26.5350722 0.153514551,39.2832414 C0.153514551,47.8262109 4.74862615,55.2852253 11.5759833,59.2759734 C10.1703509,62.5102926 9.38857761,66.0799359 9.38857761,69.8328378 C9.38857761,84.4935248 21.290638,96.3780391 35.9708206,96.3780391 C44.5898228,96.3780391 52.2496419,92.2800652 57.1059944,85.9303501"
                          id="path3005-copy" fill="#FFFFFF" fill-rule="nonzero"
                          transform="translate(68.583051, 48.481263) scale(1, -1) translate(-68.583051, -48.481263) "></path>
                    <path d="M19.9762443,54.3770551 L20.5299192,52.8408023 C20.6176494,52.5756622 20.818454,52.6633924 20.8983859,52.7140809 C21.0504515,52.8057102 21.1654756,52.8895413 21.3623811,53.0045653 C22.9941623,54.0358822 24.5050709,54.04563 24.9788138,54.04563 C26.199238,54.04563 26.9556671,53.3983763 26.9556671,52.5288728 L26.9556671,52.4820833 C26.9556671,51.5306983 25.7917801,51.1739289 24.4407354,50.7586728 L24.1424528,50.6670435 C22.2884218,50.1367633 20.309619,49.3764351 20.309619,47.0311151 L20.309619,46.9843257 C20.309619,44.7598784 22.1032136,43.2080291 24.672733,43.2080291 L24.9534695,43.2060795 C26.4624286,43.2060795 27.920699,43.6447304 28.9754107,44.2861355 C29.0709391,44.3446222 29.1645179,44.4537976 29.1118798,44.6019641 C29.0631408,44.7384332 28.5952466,45.9978486 28.5406589,46.1382169 C28.4412314,46.4014074 28.1702426,46.2259471 28.1702426,46.2259471 C27.2461514,45.7151625 25.8112757,45.3135533 24.6025488,45.3135533 C23.5146947,45.3135533 22.8128533,45.8906229 22.8128533,46.6743458 L22.8128533,46.7230847 C22.8128533,47.6393777 24.0137819,48.0292896 25.4057673,48.4815874 L25.6455631,48.5595697 C27.4917959,49.142488 29.4589014,49.9496056 29.4589014,52.1721034 L29.4589014,52.2188928 C29.4589014,54.6226996 27.7159953,56.1160621 24.9086297,56.1160621 C23.5302912,56.1160621 22.212389,55.899661 20.8165044,55.1588284 C20.5533139,55.0087124 20.2920729,54.8741928 20.0347311,54.6870351 C20.0074372,54.6480439 19.8904637,54.6012544 19.9762443,54.3770551 Z"
                          id="path3009-copy" fill="#249EE1" fill-rule="nonzero"></path>
                    <path d="M61.0749076,54.3770551 L61.6285825,52.8408023 C61.710464,52.5893091 61.9483102,52.6809384 61.9989988,52.7140809 C62.1471653,52.8096093 62.2641389,52.8895413 62.4610444,53.0045653 C64.0928256,54.0358822 65.6037342,54.04563 66.0774771,54.04563 C67.2979013,54.04563 68.05628,53.3983763 68.05628,52.5288728 L68.05628,52.4820833 C68.05628,51.5306983 66.8904434,51.1739289 65.5393987,50.7586728 L65.2411161,50.6670435 C63.3870851,50.1367633 61.4082823,49.3764351 61.4082823,47.0311151 L61.4082823,46.9843257 C61.4082823,44.7598784 63.201877,43.2080291 65.7713963,43.2080291 L66.0521329,43.2060795 C67.5610919,43.2060795 69.0193623,43.6447304 70.074074,44.2861355 C70.1696024,44.3446222 70.2631813,44.4537976 70.2105431,44.6019641 C70.1618042,44.7384332 69.6939099,45.9978486 69.6393222,46.1382169 C69.5398947,46.4014074 69.2689059,46.2259471 69.2689059,46.2259471 C68.3448148,45.7151625 66.909939,45.3135533 65.7012122,45.3135533 C64.613358,45.3135533 63.9115166,45.8906229 63.9115166,46.6743458 L63.9115166,46.7230847 C63.9115166,47.6393777 65.1124452,48.0292896 66.5044307,48.4815874 L66.7442265,48.5595697 C68.5904593,49.142488 70.5575647,49.9496056 70.5575647,52.1721034 L70.5575647,52.2188928 C70.5575647,54.6226996 68.8146586,56.1160621 66.007293,56.1160621 C64.6289545,56.1160621 63.3110523,55.899661 61.9151677,55.1588284 C61.6519772,55.0087124 61.3907362,54.8741928 61.1333944,54.6870351 C61.1061006,54.6480439 60.989127,54.6012544 61.0749076,54.3770551 Z"
                          id="path3013-copy" fill="#249EE1" fill-rule="nonzero"></path>
                    <path d="M89.1318043,49.5865995 C89.1318043,48.2297061 88.8783616,47.1613475 88.3812239,46.4127167 C87.8860358,45.6718841 87.1393546,45.3112156 86.0982898,45.3112156 C85.0552755,45.3112156 84.3124934,45.6718841 83.8270531,46.4127167 C83.3357641,47.1613475 83.0862205,48.2297061 83.0862205,49.5865995 C83.0862205,50.9454424 83.3357641,52.0177001 83.8270531,52.7721796 C84.3124934,53.52276 85.0552755,53.885378 86.0982898,53.885378 C87.1393546,53.885378 87.8860358,53.5208104 88.3792744,52.7721796 C88.8783616,52.0157505 89.1318043,50.9454424 89.1318043,49.5865995 Z M91.4751748,47.0677687 C91.7052228,47.8417438 91.8202468,48.6898021 91.8202468,49.5865995 C91.8202468,50.4833968 91.7052228,51.3314552 91.4751748,52.1054303 C91.2451267,52.8833045 90.8864078,53.5695494 90.4087657,54.1407703 C89.9311237,54.7139408 89.3248107,55.1720873 88.6093224,55.4976637 C87.8918845,55.8232401 87.0477253,55.9889527 86.0982898,55.9889527 C85.1469048,55.9889527 84.3027456,55.8232401 83.5853077,55.4976637 C82.8698194,55.1720873 82.2635064,54.7139408 81.7858643,54.1407703 C81.3062727,53.5675998 80.9495033,52.8813549 80.7175058,52.1054303 C80.4894073,51.3334047 80.3743833,50.4853464 80.3743833,49.5865995 C80.3743833,48.6878526 80.4894073,47.8417438 80.7175058,47.0677687 C80.9495033,46.291844 81.3082223,45.6055991 81.7839148,45.0324286 C82.2635064,44.4592581 82.8678698,43.9991621 83.5853077,43.6638379 C84.300796,43.3304632 85.1469048,43.1608516 86.0982898,43.1608516 C87.0477253,43.1608516 87.8938341,43.3304632 88.6093224,43.6638379 C89.3267603,43.9991621 89.9311237,44.4592581 90.4087657,45.0324286 C90.8864078,45.6036495 91.2451267,46.2898945 91.4751748,47.0677687 Z"
                          id="path3017-copy" fill="#249EE1" fill-rule="nonzero"></path>
                    <path d="M110.7187,53.5284097 L111.29382,55.1173006 C111.367903,55.3142061 111.198292,55.3960876 111.198292,55.3960876 C110.313192,55.7450587 109.08107,55.9887537 107.880141,55.9887537 C105.8487,55.9887537 104.291002,55.4019363 103.253837,54.2477971 C102.218621,53.097557 101.694189,51.5262121 101.694189,49.5825014 C101.694189,48.6837545 101.82286,47.8337465 102.076303,47.0597714 C102.331695,46.2838468 102.713809,45.5976019 103.216795,45.0244314 C103.719782,44.4512609 104.355338,43.9911649 105.103969,43.6577902 C105.854549,43.322466 106.731851,43.1548039 107.716378,43.1548039 C108.375329,43.1548039 108.967996,43.1957446 109.474881,43.273727 C110.016858,43.3556085 110.734296,43.5486149 111.038428,43.667538 C111.093015,43.6889832 111.245081,43.765016 111.182695,43.9424259 C110.964344,44.5682345 110.812279,44.9756924 110.607575,45.5449638 C110.519845,45.7867091 110.334637,45.7067772 110.334637,45.7067772 C109.562611,45.4630823 108.825678,45.3519574 107.858696,45.3519574 C106.698708,45.3519574 105.829205,45.7399197 105.257984,46.4963488 C104.682864,47.2566769 104.363136,48.2548514 104.359237,49.5825014 C104.355338,51.0407718 104.717956,52.1188782 105.36521,52.7856275 C106.010514,53.4523768 106.91121,53.7896506 108.045854,53.7896506 C108.507899,53.7896506 108.938752,53.7584577 109.330614,53.6980213 C109.716626,53.637585 110.079244,53.5167123 110.420417,53.3860918 C110.420417,53.3860918 110.640718,53.3003112 110.7187,53.5284097 Z"
                          id="path3021-copy" fill="#249EE1"></path>
                    <path d="M114.818801,48.2868464 L120.476422,48.2868464 C120.419885,47.5596608 120.277567,46.9046088 119.950041,46.4152694 C119.456802,45.6744368 118.768608,45.2650293 117.727543,45.2650293 C116.686478,45.2650293 115.945646,45.6724872 115.460206,46.4152694 C115.138528,46.9046088 114.929925,47.5323669 114.818801,48.2868464 Z M122.708668,46.6277713 C123.217503,48.4155173 122.952362,49.9595684 122.944564,50.045349 C122.923119,50.2481032 122.714516,50.2520023 122.714516,50.2520023 L114.781759,50.2442041 C114.832447,51.4490318 115.119033,52.3029389 115.70585,52.8839076 C116.277071,53.4512294 117.189465,53.8138474 118.419637,53.815797 C120.300962,53.8196961 121.108079,53.4414816 121.675401,53.2309292 C121.675401,53.2309292 121.895701,53.1509972 121.973684,53.3673983 L122.492266,54.8198201 C122.597543,55.0654646 122.513712,55.1512452 122.425981,55.1999842 C121.928844,55.4748721 120.722066,55.9856567 118.431334,55.9934549 C117.318136,55.9954044 116.349205,55.8355406 115.551835,55.5275102 C114.748616,55.2175302 114.077968,54.7730307 113.557436,54.2057089 C113.034954,53.6422862 112.648941,52.96189 112.407195,52.1898644 C112.1674,51.4236876 112.046527,50.5717301 112.046527,49.6573867 C112.046527,48.7586398 112.163501,47.9066823 112.395498,47.124909 C112.625546,46.3392365 112.988164,45.6471429 113.469705,45.0661742 C113.951247,44.483256 114.565358,44.0153617 115.296443,43.6722392 C116.025578,43.3291168 116.924325,43.1634042 117.914701,43.1634042 C118.764709,43.1634042 119.540633,43.3466628 120.187887,43.6235002 C120.683075,43.8379518 121.182163,44.222015 121.692947,44.7717908 C122.016574,45.1188123 122.509812,45.877191 122.708668,46.6277713 Z"
                          id="path3025-copy" fill="#249EE1"></path>
                    <path d="M51.2888988,48.2868464 L56.9465203,48.2868464 C56.8899831,47.5596608 56.7476652,46.9046088 56.4220888,46.4152694 C55.9269007,45.6744368 55.2387062,45.2650293 54.1976415,45.2650293 C53.1565767,45.2650293 52.4157441,45.6724872 51.9303038,46.4152694 C51.6086265,46.9046088 51.4019732,47.5323669 51.2888988,48.2868464 Z M59.1768163,46.6277713 C59.6876009,48.4155173 59.4224608,49.9595684 59.4146625,50.045349 C59.3932174,50.2481032 59.1846145,50.2520023 59.1846145,50.2520023 L51.2518572,50.2442041 C51.3025457,51.4490318 51.5891309,52.3029389 52.1759483,52.8839076 C52.7471693,53.4512294 53.6595631,53.8138474 54.8877855,53.815797 C56.7730095,53.8196961 57.5781775,53.4414816 58.1454993,53.2309292 C58.1454993,53.2309292 58.3657996,53.1509972 58.4457315,53.3673983 L58.9623647,54.8198201 C59.067641,55.0654646 58.9838099,55.1512452 58.8960797,55.1999842 C58.3989421,55.4748721 57.1921648,55.9856567 54.9014324,55.9934549 C53.788234,55.9954044 52.8193029,55.8355406 52.0219331,55.5275102 C51.2187147,55.2175302 50.5480662,54.7730307 50.0275338,54.2057089 C49.5050519,53.6422862 49.1190391,52.96189 48.8772938,52.1898644 C48.637498,51.4236876 48.5166253,50.5717301 48.5166253,49.6573867 C48.5166253,48.7586398 48.6355484,47.9066823 48.8655964,47.124909 C49.0956444,46.3392365 49.4582625,45.6471429 49.9398037,45.0661742 C50.4213448,44.483256 51.0354561,44.0153617 51.7665409,43.6722392 C52.4956761,43.3291168 53.3963725,43.1634042 54.3847992,43.1634042 C55.2348071,43.1634042 56.0107318,43.3466628 56.6579855,43.6235002 C57.1531736,43.8379518 57.6522608,44.222015 58.1630454,44.7717908 C58.4866722,45.1188123 58.9779612,45.877191 59.1768163,46.6277713 Z"
                          id="path3029-copy" fill="#249EE1"></path>
                    <path d="M34.1423281,53.4927349 C34.1364794,53.4907854 34.8539173,54.0542081 36.4681525,53.9567301 C37.6027961,53.8884955 38.6107183,53.6720944 38.6107183,53.6720944 L38.6087688,53.6720944 L38.6087688,50.0654094 C38.6087688,50.0654094 37.5930483,49.8977473 36.4564551,49.8821509 C34.8383208,49.8607057 34.1501263,50.4572709 34.155975,50.4553213 C33.6783329,50.7925951 33.4482849,51.2936319 33.4482849,51.9915742 C33.4482849,52.4321746 33.5282169,52.7791962 33.6841816,53.0228911 C33.7894578,53.182755 33.8323481,53.2451409 34.1423281,53.4927349 Z M37.2986648,47.9189445 C37.2986648,47.9189445 37.9244734,47.9754817 38.6068192,48.0729597 L38.6068192,47.7376355 C38.6068192,46.6809743 38.386519,46.1799375 37.9537168,45.8485124 C37.5092172,45.5073395 36.8502661,45.3357782 35.99246,45.3357782 C35.99246,45.3357782 34.0623961,45.310434 32.5358911,46.1409463 C32.465707,46.181887 32.4052706,46.2052817 32.4052706,46.2052817 C32.4052706,46.2052817 32.2161634,46.2715668 32.1459792,46.0766108 L31.5845061,44.5676518 C31.4987255,44.3493012 31.6546902,44.2518232 31.6546902,44.2518232 C32.368229,43.6942492 34.1013873,43.358925 34.1013873,43.358925 C34.6745578,43.243901 35.6317915,43.1620195 36.2264071,43.1620195 C37.8113989,43.1620195 39.0376718,43.5304862 39.8701337,44.2596214 C40.7064947,44.9907062 41.1314987,46.1701897 41.1314987,47.7610302 L41.1353978,55.0153409 C41.1353978,55.0153409 41.1509943,55.2258933 40.9540888,55.2746323 C40.9540888,55.2746323 40.6616548,55.3545642 40.3984643,55.4169501 C40.1333242,55.4773864 39.1780401,55.6703928 38.4001659,55.8029629 C37.6144934,55.9374825 36.8034767,56.0037675 35.9905104,56.0037675 C35.2184849,56.0037675 34.5127444,55.9316338 33.8908349,55.789316 C33.2591777,55.6469981 32.7152506,55.4111014 32.2746501,55.0894241 C31.8301506,54.7677468 31.4811794,54.3505411 31.2394341,53.8495043 C30.9976887,53.3504171 30.876816,52.740205 30.876816,52.0383636 C30.876816,51.3482195 31.0191339,50.7321588 31.2998704,50.2096768 C31.580607,49.6871949 31.9685693,49.2465945 32.4501105,48.9015225 C32.9297021,48.5584 33.4872761,48.2991086 34.107236,48.133396 C34.7232968,47.9676835 35.3802983,47.8819029 36.0606946,47.8819029 C36.5597818,47.8819029 36.9769875,47.8955498 37.2986648,47.9189445 Z"
                          id="path3033-copy" fill="#249EE1" fill-rule="nonzero"></path>
                    <path d="M101.279698,43.4286877 C101.205615,43.6450888 100.819602,44.7309934 100.683133,45.0936114 C100.632444,45.2320302 100.546664,45.325609 100.394598,45.308063 C100.394598,45.308063 99.9384011,45.2008372 99.523145,45.2008372 C99.2346102,45.2008372 98.8271522,45.2378788 98.4586855,45.3509533 C98.098017,45.4620782 97.7685415,45.6589837 97.4780571,45.9397202 C97.1895223,46.2224064 96.9555752,46.6162174 96.7840139,47.1075063 C96.6085536,47.604644 96.5208234,48.3961651 96.5208234,49.1896358 L96.5208234,55.1007 C96.5208234,55.2332701 96.4135976,55.3424454 96.2810276,55.3424454 L94.1969486,55.3424454 C94.0643785,55.3424454 93.9552032,55.2332701 93.9552032,55.1007 L93.9552032,43.2688238 C93.9552032,43.1343042 94.0507316,43.0270784 94.1833017,43.0270784 L96.2166921,43.0270784 C96.3492622,43.0270784 96.4447906,43.1343042 96.4447906,43.2688238 L96.4447906,44.2338557 C96.7489219,43.8263978 97.2947985,43.4676789 97.7860875,43.2454291 C98.2812756,43.0231793 98.8349505,42.8555172 99.8311753,42.9159535 C100.351708,42.9490961 101.026255,43.0914139 101.160775,43.144052 C101.213413,43.1635476 101.340134,43.2493282 101.279698,43.4286877 Z"
                          id="path3037-copy" fill="#249EE1"></path>
                    <path d="M81.7182823,38.8578586 C81.7728733,38.8793038 81.9268982,38.9553366 81.8645084,39.1346961 L81.2581575,40.7996198 C81.2074657,40.9243916 81.1723715,41.0004244 80.9130639,40.9224421 C80.8487244,40.9029465 80.75319,40.8756526 80.5075301,40.8230145 C80.3301091,40.7859729 80.0941977,40.7586791 79.8563366,40.7586791 C79.5424379,40.7586791 79.2558347,40.7976703 79.0043258,40.8795517 C78.758666,40.9594837 78.5344526,41.0979024 78.3394845,41.2928583 C78.1425667,41.4917134 77.9086049,41.7821978 77.7838253,42.1389671 C77.4933228,42.9792273 77.3782916,43.8721255 77.3646438,43.9286627 L79.9011792,43.9286627 C80.1136945,43.9286627 80.1799837,44.0261407 80.1604869,44.184055 L79.8641353,45.8333823 C79.8192926,46.0731781 79.5989786,46.0653799 79.5989786,46.0653799 L76.9864056,46.0653799 L75.1985478,56.1777447 C75.0113784,57.2227085 74.775467,58.1195059 74.5005619,58.8408429 C74.2237071,59.5719276 73.9332046,60.1061069 73.4711301,60.6168915 C73.0422002,61.0886849 72.5586793,61.437656 72.0049697,61.6384607 C71.4532099,61.8373157 70.7864189,61.9406424 70.0572381,61.9406424 C69.7082451,61.9406424 69.335856,61.9347937 68.895228,61.831467 C68.5774299,61.7554342 68.4039083,61.7008466 68.1699465,61.6189651 C68.0705128,61.5819234 67.9925255,61.4591012 68.0471166,61.3011869 C68.1036574,61.1432726 68.5715809,59.8585129 68.6359204,59.6889012 C68.717807,59.4841975 68.9225235,59.5621799 68.9225235,59.5621799 C69.0648503,59.6226162 69.164284,59.6635569 69.3514534,59.7005986 C69.5405725,59.7395898 69.7959808,59.7707827 69.9870495,59.7707827 C70.3321431,59.7707827 70.6479915,59.7278924 70.9209469,59.6362631 C71.2523927,59.5251382 71.4434615,59.3340814 71.6462284,59.0767396 C71.856794,58.8077003 72.0264162,58.4392336 72.1999379,57.9479446 C72.3773589,57.4488574 72.5372328,56.7918559 72.6756601,55.9925365 L74.4537695,46.0653799 L72.701006,46.0653799 C72.4904404,46.0653799 72.4222016,45.9659523 72.4436481,45.8099876 L72.7380499,44.1587107 C72.7848423,43.9208645 73.0032066,43.9286627 73.0032066,43.9286627 L74.8047122,43.9286627 L74.9021962,43.3925339 C75.1712523,41.7997438 75.7074146,40.5890674 76.4970356,39.7936471 C77.2905559,38.9943278 78.4213711,38.5888194 79.8563366,38.5888194 C80.2677193,38.5888194 80.6303601,38.6161132 80.9345104,38.6707009 C81.2347613,38.7272381 81.4648237,38.7798762 81.7182823,38.8578586 Z"
                          id="path3041-copy" fill="#249EE1"></path>
                    <path d="M46.2793114,56.0719126 C46.2793114,56.2044826 46.183783,56.3117084 46.051213,56.3117084 L43.9476383,56.3117084 C43.8150683,56.3117084 43.7214894,56.2044826 43.7214894,56.0719126 L43.7214894,39.1419384 C43.7214894,39.0093684 43.8150683,38.9021426 43.9476383,38.9021426 L46.051213,38.9021426 C46.183783,38.9021426 46.2793114,39.0093684 46.2793114,39.1419384 L46.2793114,56.0719126 Z"
                          id="path3045-copy" fill="#249EE1"></path>
                </g>
            </g>
        </g>
    </g>
</svg>