<?xml version="1.0" encoding="UTF-8"?><svg width="180px" height="180px" viewBox="0 0 180 180" version="1.1" xmlns="http://www.w3.org/2000/svg" xmlns:xlink="http://www.w3.org/1999/xlink"><defs></defs><g id="Page-1" stroke="none" stroke-width="1" fill="none" fill-rule="evenodd"><g id="Salesforce" transform="translate(-911.000000, -24.000000)"><g id="Patron" transform="translate(911.000000, 24.000000)"><path d="M89.9023438,0.592493333 C40.5298994,0.592493333 0.5,40.6223927 0.5,89.9948371 C0.5,139.367281 40.5298994,179.397181 89.9023438,179.397181 C139.274788,179.397181 179.304688,139.367281 179.304688,89.9948371 C179.304688,40.6223927 139.274788,0.592493333 89.9023438,0.592493333 Z" id="Path" fill="#000000"></path><g id="Salesforce" transform="translate(36.234375, 50.923902)"><path d="M47.4913416,71.8015804 C51.1620142,75.6262785 56.2724205,77.9982723 61.9243482,77.9982723 C69.4375534,77.9982723 75.9925574,73.8087768 79.4832632,67.5893864 C82.5167563,68.9448114 85.8745138,69.698726 89.4073739,69.698726 C102.958381,69.698726 113.944458,58.6169916 113.944458,44.9476275 C113.944458,31.2766422 102.958381,20.1949077 89.4073739,20.1949077 C87.7536257,20.1949077 86.1371679,20.3602825 84.5742137,20.6764403 C81.5001876,15.19313 75.6423519,11.4884097 68.9187304,11.4884097 C66.1041158,11.4884097 63.4419054,12.1385597 61.071533,13.2945621 C57.9553525,5.96456631 50.6950735,0.824976226 42.233395,0.824976226 C33.4215111,0.824976226 25.9115485,6.40070187 23.0288384,14.2203369 C21.7690714,13.9528188 20.4639073,13.8133851 19.1246955,13.8133851 C8.6331222,13.8133851 0.127668068,22.4063906 0.127668068,33.0082138 C0.127668068,40.1128459 3.94912353,46.3160231 9.62699246,49.6348688 C8.45801944,52.3246417 7.8078694,55.2932819 7.8078694,58.4143263 C7.8078694,70.6066662 17.706039,80.4902439 29.9145921,80.4902439 C37.0824557,80.4902439 43.452629,77.0822255 47.4913416,71.8015804" id="path3005" fill="#FFFFFF" class="ignore" fill-rule="nonzero" transform="translate(57.036063, 40.657610) scale(1, -1) translate(-57.036063, -40.657610) "></path><path d="M16.6129432,37.7168022 C16.541605,37.5303502 16.6388844,37.4914385 16.6615829,37.459012 C16.8755973,37.3033652 17.0928545,37.1914939 17.3117329,37.0666522 C18.4725993,36.4505499 19.5686128,36.2705832 20.7148873,36.2705832 C23.0495907,36.2705832 24.4990524,37.5125157 24.4990524,39.5116054 L24.4990524,39.5505172 C24.4990524,41.398824 22.8631387,42.0700512 21.327747,42.5548264 L21.1283244,42.6196793 C19.9707006,42.995826 18.9719664,43.3200903 18.9719664,44.0821116 L18.9719664,44.1226446 C18.9719664,44.774416 19.5556423,45.2543272 20.4603398,45.2543272 C21.4655593,45.2543272 22.6588522,44.9203349 23.4273587,44.4955486 C23.4273587,44.4955486 23.6527224,44.3496297 23.7354098,44.5685081 C23.7808069,44.6852433 24.1699241,45.7326172 24.2104571,45.8461097 C24.2542328,45.9693301 24.1764094,46.0601242 24.0969646,46.1087638 C23.2198295,46.6421787 22.0070808,47.0069761 20.7521777,47.0069761 L20.5187074,47.0053548 C18.3818053,47.0053548 16.8901892,45.7147826 16.8901892,43.8648544 L16.8901892,43.8259427 C16.8901892,41.8754926 18.5358308,41.2431771 20.0777079,40.8021776 L20.3257701,40.7259755 C21.4493461,40.3806339 22.4172752,40.083932 22.4172752,39.292727 L22.4172752,39.2538153 C22.4172752,38.5307057 21.7882024,37.9924269 20.7732549,37.9924269 C20.3792737,37.9924269 19.1227493,38.0005335 17.765703,38.8582128 C17.6019495,38.9538707 17.5062915,39.0235876 17.3798284,39.0997897 C17.3133542,39.1419441 17.1463581,39.2149035 17.0733986,38.9944038 L16.6129432,37.7168022 Z" id="path3009" fill="#000000" fill-rule="nonzero" transform="translate(20.543136, 41.638780) scale(1, -1) translate(-20.543136, -41.638780) "></path><path d="M50.7920286,37.7168022 C50.7206904,37.5303502 50.8179697,37.4914385 50.8406682,37.459012 C51.0546827,37.3033652 51.2719398,37.1914939 51.4908183,37.0666522 C52.6516847,36.4505499 53.7476982,36.2705832 54.8939727,36.2705832 C57.2286761,36.2705832 58.6781378,37.5125157 58.6781378,39.5116054 L58.6781378,39.5505172 C58.6781378,41.398824 57.0422241,42.0700512 55.5068324,42.5548264 L55.3074098,42.6196793 C54.149786,42.995826 53.1510518,43.3200903 53.1510518,44.0821116 L53.1510518,44.1226446 C53.1510518,44.774416 53.7347276,45.2543272 54.6394252,45.2543272 C55.6446447,45.2543272 56.8379375,44.9203349 57.6064441,44.4955486 C57.6064441,44.4955486 57.8318078,44.3496297 57.9144952,44.5685081 C57.9598922,44.6852433 58.3490095,45.7326172 58.3895425,45.8461097 C58.4333182,45.9693301 58.3554947,46.0601242 58.27605,46.1087638 C57.3989149,46.6421787 56.1861662,47.0069761 54.9312631,47.0069761 L54.6977928,47.0053548 C52.5608907,47.0053548 51.0692746,45.7147826 51.0692746,43.8648544 L51.0692746,43.8259427 C51.0692746,41.8754926 52.7149162,41.2431771 54.2567933,40.8021776 L54.5048555,40.7259755 C55.6284315,40.3806339 56.5979819,40.083932 56.5979819,39.292727 L56.5979819,39.2538153 C56.5979819,38.5307057 55.9672877,37.9924269 54.9523403,37.9924269 C54.5583591,37.9924269 53.3018347,38.0005335 51.9447884,38.8582128 C51.7810349,38.9538707 51.6837556,39.0203449 51.5605351,39.0997897 C51.5183807,39.1273522 51.3205795,39.2035543 51.252484,38.9944038 L50.7920286,37.7168022 Z" id="path3013" fill="#000000" fill-rule="nonzero" transform="translate(54.722222, 41.638780) scale(1, -1) translate(-54.722222, -41.638780) "></path><path d="M74.1251249,41.5573908 C74.1251249,40.4273295 73.914353,39.5372238 73.4992946,38.908151 C73.0891002,38.2855634 72.468134,37.9823762 71.6023481,37.9823762 C70.734941,37.9823762 70.1172174,38.2839421 69.7135083,38.908151 C69.3049352,39.5356025 69.097406,40.4273295 69.097406,41.5573908 C69.097406,42.6858308 69.3049352,43.5743151 69.7135083,44.1969027 C70.1172174,44.8130049 70.734941,45.1129495 71.6023481,45.1129495 C72.468134,45.1129495 73.0891002,44.8130049 73.500916,44.1969027 C73.914353,43.5743151 74.1251249,42.6858308 74.1251249,41.5573908 M76.0739536,43.6521385 C75.8826377,44.2990459 75.5843145,44.8697512 75.1870906,45.3447985 C74.7898668,45.8214671 74.287257,46.204099 73.6906106,46.4829664 C73.0955855,46.7602124 72.3919319,46.9012674 71.6023481,46.9012674 C70.8111431,46.9012674 70.1074894,46.7602124 69.5124643,46.4829664 C68.9158179,46.204099 68.4132082,45.8214671 68.014363,45.3447985 C67.6187605,44.8681299 67.3204373,44.2974246 67.1275,43.6521385 C66.9378053,43.0084738 66.8421474,42.3048201 66.8421474,41.5573908 C66.8421474,40.8099614 66.9378053,40.1046865 67.1275,39.462643 C67.3204373,38.817357 67.6171392,38.2466517 68.0159843,37.7699831 C68.4132082,37.2933145 68.9174393,36.9123038 69.5124643,36.6415431 C70.1091108,36.3707824 70.8111431,36.23297 71.6023481,36.23297 C72.3919319,36.23297 73.0939642,36.3707824 73.6906106,36.6415431 C74.2856357,36.9123038 74.7898668,37.2933145 75.1870906,37.7699831 C75.5843145,38.2450304 75.8826377,38.8157356 76.0739536,39.462643 C76.2652696,40.1063078 76.3609276,40.8115828 76.3609276,41.5573908 C76.3609276,42.3031988 76.2652696,43.0084738 76.0739536,43.6521385" id="path3017" fill="#000000" fill-rule="nonzero" transform="translate(71.601537, 41.567119) scale(1, -1) translate(-71.601537, -41.567119) "></path><path d="M92.077542,38.2740487 C92.0126891,38.4637433 91.8294797,38.3924051 91.8294797,38.3924051 C91.5457484,38.2837766 91.2441826,38.1832546 90.9231609,38.1329937 C90.5972752,38.0827327 90.2389631,38.0567915 89.8547098,38.0567915 C88.9111005,38.0567915 88.1620498,38.3372802 87.6253923,38.8917723 C87.0871135,39.4462643 86.7855476,40.3428553 86.7887903,41.555604 C86.7920329,42.6597241 87.0579297,43.4898409 87.5362196,44.1221564 C88.0112669,44.7512292 88.7343764,45.0738723 89.6990629,45.0738723 C90.5032385,45.0738723 91.1160982,44.9814569 91.7581416,44.7787917 C91.7581416,44.7787917 91.9121672,44.7123175 91.9851266,44.9133614 C92.1553654,45.3867874 92.2818285,45.7256436 92.4634166,46.2460879 C92.5152989,46.3936282 92.3888358,46.4568598 92.3434388,46.4746943 C92.0905126,46.5735949 91.4938661,46.7341058 91.0431387,46.8022013 C90.621595,46.8670542 90.1287132,46.9011019 89.5807064,46.9011019 C88.7619389,46.9011019 88.0323441,46.7616682 87.4081352,46.4828009 C86.7855476,46.2055549 86.2569967,45.8229229 85.8386957,45.3462543 C85.4203947,44.8695857 85.1026156,44.2988804 84.8902225,43.6535944 C84.6794506,43.0099296 84.5724434,42.3030333 84.5724434,41.555604 C84.5724434,39.9391461 85.008579,38.6323608 85.8695008,37.6757809 C86.732044,36.7159584 88.0274801,36.2279406 89.7168974,36.2279406 C90.7156317,36.2279406 91.740307,36.4306058 92.4763871,36.7208224 C92.4763871,36.7208224 92.6174421,36.7889179 92.5558319,36.9526714 L92.077542,38.2740487 Z" id="path3021" fill="#000000" transform="translate(88.571925, 41.564521) scale(1, -1) translate(-88.571925, -41.564521) "></path><path d="M95.487329,42.6441926 C95.5797443,43.2716441 95.7532258,43.7937098 96.0207439,44.2006615 C96.424453,44.8183851 97.0405553,45.1572414 97.9063411,45.1572414 C98.772127,45.1572414 99.3444535,44.8167638 99.754648,44.2006615 C100.02703,43.7937098 100.145387,43.2489456 100.192405,42.6441926 L95.487329,42.6441926 Z M102.048818,44.0239374 C101.883443,44.6481463 101.473249,45.2788405 101.20411,45.5674358 C100.779323,46.0246485 100.364265,46.3440489 99.9524492,46.5223943 C99.4141704,46.752622 98.7688843,46.9050263 98.061988,46.9050263 C97.2383565,46.9050263 96.4909272,46.7672139 95.8845528,46.4818613 C95.2765572,46.1965086 94.7658408,45.8073914 94.3653743,45.3226162 C93.9649078,44.8394623 93.663342,44.2638931 93.472026,43.6105004 C93.2790887,42.9603503 93.1818094,42.2518327 93.1818094,41.5044034 C93.1818094,40.7440035 93.2823314,40.0354858 93.4817539,39.3983064 C93.6827978,38.7562629 94.0038196,38.1904216 94.4383338,37.7218596 C94.8712267,37.250055 95.4289614,36.8803936 96.096946,36.6226035 C96.7600666,36.3664346 97.5658635,36.2334862 98.4916383,36.2351076 C100.396691,36.2415928 101.40029,36.6663791 101.813727,36.8949855 C101.886686,36.9355186 101.956403,37.0068567 101.868852,37.2111433 L101.43758,38.419028 C101.372727,38.5989947 101.189518,38.5325205 101.189518,38.5325205 C100.717713,38.3574178 100.046486,38.0428814 98.4819104,38.046124 C97.4588563,38.0477453 96.7000777,38.3493112 96.2250304,38.8211158 C95.7370126,39.3042697 95.4986783,40.0144087 95.4565239,41.0163855 L102.053682,41.0099002 C102.053682,41.0099002 102.227164,41.0131429 102.244998,41.1817603 C102.251484,41.2530985 102.471983,42.5371854 102.048818,44.0239374 Z" id="path3025" fill="#000000" transform="translate(97.744982, 41.570060) scale(1, -1) translate(-97.744982, -41.570060) "></path><path d="M42.6536415,42.6441926 C42.7476782,43.2716441 42.9195383,43.7937098 43.1870564,44.2006615 C43.5907655,44.8183851 44.2068678,45.1572414 45.0726536,45.1572414 C45.9384394,45.1572414 46.510766,44.8167638 46.9225818,44.2006615 C47.1933425,43.7937098 47.311699,43.2489456 47.3587173,42.6441926 L42.6536415,42.6441926 Z M49.2135095,44.0239374 C49.0481346,44.6481463 48.6395615,45.2788405 48.3704221,45.5674358 C47.9456358,46.0246485 47.5305774,46.3440489 47.1187617,46.5223943 C46.5804829,46.752622 45.9351968,46.9050263 45.2283005,46.9050263 C44.4062903,46.9050263 43.6572397,46.7672139 43.0508653,46.4818613 C42.4428697,46.1965086 41.9321533,45.8073914 41.5316868,45.3226162 C41.1312203,44.8394623 40.8296545,44.2638931 40.6383385,43.6105004 C40.4470225,42.9603503 40.3481219,42.2518327 40.3481219,41.5044034 C40.3481219,40.7440035 40.4486438,40.0354858 40.6480664,39.3983064 C40.8491103,38.7562629 41.170132,38.1904216 41.6046463,37.7218596 C42.0375392,37.250055 42.5952739,36.8803936 43.2632585,36.6226035 C43.9263791,36.3664346 44.732176,36.2334862 45.6579508,36.2351076 C47.5630039,36.2415928 48.5666021,36.6663791 48.9800391,36.8949855 C49.0529986,36.9355186 49.1227154,37.0068567 49.0351641,37.2111433 L48.6055138,38.419028 C48.5390396,38.5989947 48.3558302,38.5325205 48.3558302,38.5325205 C47.8840256,38.3574178 47.2144197,38.0428814 45.6466015,38.046124 C44.6251688,38.0477453 43.8663902,38.3493112 43.3913429,38.8211158 C42.903325,39.3042697 42.6649907,40.0144087 42.6228364,41.0163855 L49.2199948,41.0099002 C49.2199948,41.0099002 49.3934762,41.0131429 49.4113107,41.1817603 C49.417796,41.2530985 49.6382958,42.5371854 49.2135095,44.0239374 Z" id="path3029" fill="#000000" transform="translate(44.911184, 41.570060) scale(1, -1) translate(-44.911184, -41.570060) "></path><path d="M28.3939538,38.3222038 C28.1361636,38.5281116 28.1004945,38.5799939 28.0129432,38.7129423 C27.8832374,38.9156075 27.8167632,39.2042028 27.8167632,39.5706215 C27.8167632,40.1510547 28.0080792,40.5677344 28.405303,40.8482231 C28.4004391,40.8466018 28.9727657,41.3427263 30.3184627,41.3248917 C31.2636933,41.3119211 32.108402,41.1724875 32.108402,41.1724875 L32.108402,38.1730422 L32.1100233,38.1730422 C32.1100233,38.1730422 31.2718,37.9930754 30.3281907,37.9363292 C28.9857362,37.8552631 28.3890898,38.3238251 28.3939538,38.3222038 M31.0188738,42.9575628 C30.7513557,42.9770186 30.4043928,42.9883679 29.9893344,42.9883679 C29.4234931,42.9883679 28.8771077,42.9170297 28.36477,42.7792174 C27.8491897,42.641405 27.3854916,42.4257692 26.9866465,42.1404166 C26.58618,41.8534426 26.2635369,41.4870239 26.0300666,41.0525097 C25.7965963,40.6179954 25.6782398,40.1056577 25.6782398,39.5317098 C25.6782398,38.948034 25.7787617,38.4405602 25.9798056,38.0255019 C26.1808495,37.6088222 26.4710661,37.2618593 26.8407275,36.9943412 C27.2071462,36.7268231 27.659495,36.5306432 28.1848033,36.4122867 C28.7020049,36.2939302 29.2889234,36.2339413 29.9309668,36.2339413 C30.607058,36.2339413 31.2815279,36.2890662 31.9349206,36.4009374 C32.581828,36.5111873 33.3762756,36.6716982 33.5967754,36.7219591 C33.8156539,36.7738414 34.0588521,36.8403156 34.0588521,36.8403156 C34.2226056,36.8808487 34.209635,37.0559514 34.209635,37.0559514 L34.2063924,43.0888898 C34.2063924,44.4118884 33.8529443,45.3927881 33.1573972,46.0007838 C32.4650928,46.6071581 31.4452814,46.9135879 30.1271468,46.9135879 C29.6326436,46.9135879 28.8365746,46.8454924 28.359906,46.7498344 C28.359906,46.7498344 26.9185509,46.4709671 26.3251472,46.0072691 C26.3251472,46.0072691 26.1954414,45.926203 26.2667796,45.7446149 L26.7337203,44.4897119 C26.7920878,44.3275797 26.9493561,44.3827046 26.9493561,44.3827046 C26.9493561,44.3827046 26.999617,44.4021605 27.0579846,44.4362082 C28.3274796,45.1268913 29.9325882,45.1058141 29.9325882,45.1058141 C30.6459697,45.1058141 31.1939765,44.9631378 31.5636379,44.6794065 C31.9235713,44.4037818 32.1067807,43.9871021 32.1067807,43.1083457 L32.1067807,42.8294783 C31.5393181,42.9105444 31.0188738,42.9575628 31.0188738,42.9575628" id="path3033" fill="#000000" fill-rule="nonzero" transform="translate(29.944059, 41.573765) scale(1, -1) translate(-29.944059, -41.573765) "></path><path d="M84.227738,45.9268502 C84.277999,46.0760118 84.172613,46.14735 84.1288374,46.1635632 C84.0169662,46.2073389 83.4559888,46.3256954 83.0230959,46.3532579 C82.1946005,46.4035188 81.7341451,46.2640852 81.3223293,46.0792545 C80.9137562,45.8944238 80.4597861,45.5961006 80.2068599,45.2572443 L80.2068599,46.0597986 C80.2068599,46.1716698 80.1274152,46.2608425 80.0171653,46.2608425 L78.3261267,46.2608425 C78.2158768,46.2608425 78.136432,46.1716698 78.136432,46.0597986 L78.136432,36.2199966 C78.136432,36.1097468 78.227226,36.0189527 78.3374759,36.0189527 L80.0706689,36.0189527 C80.1809188,36.0189527 80.2700915,36.1097468 80.2700915,36.2199966 L80.2700915,41.1358443 C80.2700915,41.7957223 80.343051,42.4539789 80.4889699,42.867416 C80.6316462,43.2759891 80.8262049,43.6034961 81.0661605,43.8385878 C81.3077374,44.0720581 81.5817408,44.2358116 81.8816853,44.3282269 C82.1881152,44.4222636 82.5269714,44.4530687 82.766927,44.4530687 C83.1122686,44.4530687 83.4916579,44.363896 83.4916579,44.363896 C83.618121,44.3493041 83.6894591,44.4271276 83.7316135,44.5422414 C83.845106,44.8438073 84.1661278,45.7468835 84.227738,45.9268502" id="path3037" fill="#000000" transform="translate(81.188730, 41.191281) scale(1, -1) translate(-81.188730, -41.191281) "></path><path d="M67.9597807,51.6271583 C67.7489957,51.6920111 67.5576678,51.7357868 67.3079686,51.7828051 C67.0550266,51.8282022 66.7534419,51.8509007 66.4113216,51.8509007 C65.2179541,51.8509007 64.2775287,51.5136657 63.6176094,50.8489238 C62.960933,50.1874245 62.5150417,49.1805837 62.2912853,47.8559638 L62.2102141,47.4101003 L60.7120191,47.4101003 C60.7120191,47.4101003 60.5304197,47.4165856 60.4915055,47.2187843 L60.2466706,45.8455247 C60.228835,45.715819 60.2855848,45.6331316 60.4606985,45.6331316 L61.9183579,45.6331316 L60.43962,37.377361 C60.3244989,36.7126191 60.1915422,36.1662336 60.0439927,35.7511753 C59.8996861,35.3426022 59.7586222,35.0361723 59.5835085,34.8124299 C59.4148805,34.5984155 59.2559811,34.4395259 58.9803391,34.3471106 C58.7533399,34.2709085 58.4906693,34.2352394 58.2036774,34.2352394 C58.0447779,34.2352394 57.8323715,34.2611805 57.6750935,34.293607 C57.5194368,34.3244121 57.4367442,34.3584598 57.3183804,34.4087208 C57.3183804,34.4087208 57.1481309,34.4735737 57.0800311,34.3033349 C57.0265242,34.1622799 56.6373826,33.0938288 56.5903613,32.9625018 C56.5449615,32.8311747 56.6098184,32.7290314 56.692511,32.6982263 C56.8870818,32.6301308 57.0313885,32.5847338 57.2956804,32.5215022 C57.6621221,32.4355722 57.9718139,32.4307082 58.2620486,32.4307082 C58.8684609,32.4307082 59.4229876,32.5166383 59.8818504,32.6820131 C60.3423346,32.8490092 60.7444475,33.1392258 61.1011606,33.5315857 C61.4854379,33.956372 61.72703,34.4006142 61.9572721,35.0086099 C62.1858928,35.6084989 62.382085,36.354307 62.5377416,37.2233354 L64.0245866,45.6331316 L66.1972937,45.6331316 C66.1972937,45.6331316 66.3805145,45.6266463 66.4178073,45.8260689 L66.6642636,47.1977071 C66.6804778,47.3290342 66.6253494,47.4101003 66.4486143,47.4101003 L64.3391427,47.4101003 C64.3504927,47.4571186 64.4461567,48.199684 64.6877487,48.8984737 C64.7915198,49.1951756 64.9860906,49.4367525 65.1498543,49.6021273 C65.3119966,49.7642595 65.4984603,49.8793734 65.7027596,49.9458476 C65.9119232,50.0139431 66.1502724,50.0463695 66.4113216,50.0463695 C66.6091352,50.0463695 66.8053274,50.023671 66.9528769,49.9928659 C67.1571762,49.9490902 67.236626,49.9263917 67.2901329,49.9101785 C67.5057822,49.8453256 67.5349678,49.9085572 67.5771248,50.0123218 L68.0813874,51.3969306 C68.133273,51.5460922 68.0051806,51.6093237 67.9597807,51.6271583" id="path3041" fill="#000000" transform="translate(62.334479, 42.140804) scale(1, -1) translate(-62.334479, -42.140804) "></path><path d="M38.4874935,32.8907013 C38.4874935,32.7804514 38.4080487,32.6912787 38.2977988,32.6912787 L36.5483926,32.6912787 C36.4381427,32.6912787 36.3603193,32.7804514 36.3603193,32.8907013 L36.3603193,46.9702598 C36.3603193,47.0805097 36.4381427,47.1696824 36.5483926,47.1696824 L38.2977988,47.1696824 C38.4080487,47.1696824 38.4874935,47.0805097 38.4874935,46.9702598 L38.4874935,32.8907013 Z" id="path3045"  fill="#000000" transform="translate(37.423906, 39.930481) scale(1, -1) translate(-37.423906, -39.930481) "></path></g></g></g></g></svg>