<?xml version="1.0" encoding="UTF-8"?>
<svg width="137px" height="97px" viewBox="0 0 137 97" version="1.1" xmlns="http://www.w3.org/2000/svg"
>
    <!-- Generator: Sketch 48.2 (47327) - http://www.bohemiancoding.com/sketch -->
    <title>Mask Copy</title>
    <desc>Created with Sketch.</desc>
    <defs></defs>
    <g id="Page-1" stroke="none" stroke-width="1" fill="none" fill-rule="evenodd">
        <g id="Salesforce" transform="translate(-632.000000, -65.000000)">
            <g id="Mask-Copy" transform="translate(632.000000, 64.000000)">
                <g id="Salesforce" transform="translate(0.000000, 0.592493)">
                    <path d="M57.1059944,86.3378568 C61.519797,90.9368675 67.6648084,93.7890729 74.4609726,93.7890729 C83.495231,93.7890729 91.3772998,88.7514113 95.5747013,81.2729013 C99.222327,82.902733 103.259865,83.8092782 107.507955,83.8092782 C123.802372,83.8092782 137.012587,70.4840394 137.012587,54.0473038 C137.012587,37.6086186 123.802372,24.2833798 107.507955,24.2833798 C105.519404,24.2833798 103.575693,24.4822349 101.696318,24.862399 C97.9999532,18.2689889 90.956195,13.8142456 82.871372,13.8142456 C79.4869368,13.8142456 76.2857602,14.596019 73.4355043,15.9860548 C69.6884511,7.17209662 60.9583239,0.991993196 50.7835732,0.991993196 C40.1877176,0.991993196 31.1573583,7.69652811 27.6910416,17.0992533 C26.1762339,16.777576 24.6068386,16.6099139 22.9965025,16.6099139 C10.3809034,16.6099139 0.153514551,26.9425789 0.153514551,39.6907481 C0.153514551,48.2337175 4.74862615,55.6927319 11.5759833,59.6834801 C10.1703509,62.9177992 9.38857761,66.4874426 9.38857761,70.2403445 C9.38857761,84.9010315 21.290638,96.7855458 35.9708206,96.7855458 C44.5898228,96.7855458 52.2496419,92.6875719 57.1059944,86.3378568"
                          id="path3005" fill="#000000" fill-rule="nonzero"
                          transform="translate(68.583051, 48.888769) scale(1, -1) translate(-68.583051, -48.888769) "></path>
                    <path d="M19.9762443,45.3525932 C19.8904637,45.1283939 20.0074372,45.0816044 20.0347311,45.0426133 C20.2920729,44.8554556 20.5533139,44.7209359 20.8165044,44.5708199 C22.212389,43.8299873 23.5302912,43.6135862 24.9086297,43.6135862 C27.7159953,43.6135862 29.4589014,45.1069487 29.4589014,47.5107555 L29.4589014,47.5575449 C29.4589014,49.7800427 27.4917959,50.5871603 25.6455631,51.1700786 L25.4057673,51.248061 C24.0137819,51.7003587 22.8128533,52.0902706 22.8128533,53.0065636 L22.8128533,53.0553026 C22.8128533,53.8390254 23.5146947,54.416095 24.6025488,54.416095 C25.8112757,54.416095 27.2461514,54.0144858 28.1702426,53.5037012 C28.1702426,53.5037012 28.4412314,53.3282409 28.5406589,53.5914314 C28.5952466,53.7317997 29.0631408,54.9912151 29.1118798,55.1276842 C29.1645179,55.2758508 29.0709391,55.3850261 28.9754107,55.4435129 C27.920699,56.0849179 26.4624286,56.5235688 24.9534695,56.5235688 L24.672733,56.5216192 C22.1032136,56.5216192 20.309619,54.9697699 20.309619,52.7453226 L20.309619,52.6985332 C20.309619,50.3532132 22.2884218,49.592885 24.1424528,49.0626048 L24.4407354,48.9709755 C25.7917801,48.5557194 26.9556671,48.19895 26.9556671,47.247565 L26.9556671,47.2007756 C26.9556671,46.331272 26.199238,45.6840183 24.9788138,45.6840183 C24.5050709,45.6840183 22.9941623,45.6937661 21.3623811,46.7250831 C21.1654756,46.8401071 21.0504515,46.9239381 20.8983859,47.0155674 C20.818454,47.066256 20.6176494,47.1539861 20.5299192,46.888846 L19.9762443,45.3525932 Z"
                          id="path3009" fill="#FFFFFF" fill-rule="nonzero"
                          transform="translate(24.702108, 50.068577) scale(1, -1) translate(-24.702108, -50.068577) "></path>
                    <path d="M61.0749076,45.3525932 C60.989127,45.1283939 61.1061006,45.0816044 61.1333944,45.0426133 C61.3907362,44.8554556 61.6519772,44.7209359 61.9151677,44.5708199 C63.3110523,43.8299873 64.6289545,43.6135862 66.007293,43.6135862 C68.8146586,43.6135862 70.5575647,45.1069487 70.5575647,47.5107555 L70.5575647,47.5575449 C70.5575647,49.7800427 68.5904593,50.5871603 66.7442265,51.1700786 L66.5044307,51.248061 C65.1124452,51.7003587 63.9115166,52.0902706 63.9115166,53.0065636 L63.9115166,53.0553026 C63.9115166,53.8390254 64.613358,54.416095 65.7012122,54.416095 C66.909939,54.416095 68.3448148,54.0144858 69.2689059,53.5037012 C69.2689059,53.5037012 69.5398947,53.3282409 69.6393222,53.5914314 C69.6939099,53.7317997 70.1618042,54.9912151 70.2105431,55.1276842 C70.2631813,55.2758508 70.1696024,55.3850261 70.074074,55.4435129 C69.0193623,56.0849179 67.5610919,56.5235688 66.0521329,56.5235688 L65.7713963,56.5216192 C63.201877,56.5216192 61.4082823,54.9697699 61.4082823,52.7453226 L61.4082823,52.6985332 C61.4082823,50.3532132 63.3870851,49.592885 65.2411161,49.0626048 L65.5393987,48.9709755 C66.8904434,48.5557194 68.05628,48.19895 68.05628,47.247565 L68.05628,47.2007756 C68.05628,46.331272 67.2979013,45.6840183 66.0774771,45.6840183 C65.6037342,45.6840183 64.0928256,45.6937661 62.4610444,46.7250831 C62.2641389,46.8401071 62.1471653,46.920039 61.9989988,47.0155674 C61.9483102,47.0487099 61.710464,47.1403392 61.6285825,46.888846 L61.0749076,45.3525932 Z"
                          id="path3013" fill="#FFFFFF" fill-rule="nonzero"
                          transform="translate(65.800771, 50.068577) scale(1, -1) translate(-65.800771, -50.068577) "></path>
                    <path d="M89.1318043,49.9707114 C89.1318043,48.6118685 88.8783616,47.5415604 88.3792744,46.7851313 C87.8860358,46.0365005 87.1393546,45.6719329 86.0982898,45.6719329 C85.0552755,45.6719329 84.3124934,46.0345509 83.8270531,46.7851313 C83.3357641,47.5396108 83.0862205,48.6118685 83.0862205,49.9707114 C83.0862205,51.3276048 83.3357641,52.3959634 83.8270531,53.1445942 C84.3124934,53.8854268 85.0552755,54.2460953 86.0982898,54.2460953 C87.1393546,54.2460953 87.8860358,53.8854268 88.3812239,53.1445942 C88.8783616,52.3959634 89.1318043,51.3276048 89.1318043,49.9707114 M91.4751748,52.4895422 C91.2451267,53.2674164 90.8864078,53.9536614 90.4087657,54.5248823 C89.9311237,55.0980528 89.3267603,55.5581488 88.6093224,55.893473 C87.8938341,56.2268477 87.0477253,56.3964593 86.0982898,56.3964593 C85.1469048,56.3964593 84.300796,56.2268477 83.5853077,55.893473 C82.8678698,55.5581488 82.2635064,55.0980528 81.7839148,54.5248823 C81.3082223,53.9517118 80.9495033,53.2654669 80.7175058,52.4895422 C80.4894073,51.7155671 80.3743833,50.8694583 80.3743833,49.9707114 C80.3743833,49.0719645 80.4894073,48.2239062 80.7175058,47.4518806 C80.9495033,46.675956 81.3062727,45.9897111 81.7858643,45.4165406 C82.2635064,44.8433701 82.8698194,44.3852236 83.5853077,44.0596472 C84.3027456,43.7340708 85.1469048,43.5683582 86.0982898,43.5683582 C87.0477253,43.5683582 87.8918845,43.7340708 88.6093224,44.0596472 C89.3248107,44.3852236 89.9311237,44.8433701 90.4087657,45.4165406 C90.8864078,45.9877615 91.2451267,46.6740064 91.4751748,47.4518806 C91.7052228,48.2258557 91.8202468,49.0739141 91.8202468,49.9707114 C91.8202468,50.8675088 91.7052228,51.7155671 91.4751748,52.4895422"
                          id="path3017" fill="#FFFFFF" fill-rule="nonzero"
                          transform="translate(86.097315, 49.982409) scale(1, -1) translate(-86.097315, -49.982409) "></path>
                    <path d="M110.7187,46.0226546 C110.640718,46.250753 110.420417,46.1649724 110.420417,46.1649724 C110.079244,46.0343519 109.716626,45.9134792 109.330614,45.8530429 C108.938752,45.7926065 108.507899,45.7614136 108.045854,45.7614136 C106.91121,45.7614136 106.010514,46.0986874 105.36521,46.7654367 C104.717956,47.432186 104.355338,48.5102924 104.359237,49.9685629 C104.363136,51.2962128 104.682864,52.2943873 105.257984,53.0547155 C105.829205,53.8111445 106.698708,54.1991068 107.858696,54.1991068 C108.825678,54.1991068 109.562611,54.087982 110.334637,53.844287 C110.334637,53.844287 110.519845,53.7643551 110.607575,54.0061005 C110.812279,54.5753718 110.964344,54.9828297 111.182695,55.6086383 C111.245081,55.7860482 111.093015,55.8620811 111.038428,55.8835262 C110.734296,56.0024493 110.016858,56.1954557 109.474881,56.2773372 C108.967996,56.3553196 108.375329,56.3962603 107.716378,56.3962603 C106.731851,56.3962603 105.854549,56.2285982 105.103969,55.893274 C104.355338,55.5598993 103.719782,55.0998033 103.216795,54.5266328 C102.713809,53.9534624 102.331695,53.2672174 102.076303,52.4912928 C101.82286,51.7173177 101.694189,50.8673098 101.694189,49.9685629 C101.694189,48.0248521 102.218621,46.4535072 103.253837,45.3032671 C104.291002,44.1491279 105.8487,43.5623105 107.880141,43.5623105 C109.08107,43.5623105 110.313192,43.8060055 111.198292,44.1549766 C111.198292,44.1549766 111.367903,44.2368581 111.29382,44.4337636 L110.7187,46.0226546 Z"
                          id="path3021" fill="#FFFFFF"
                          transform="translate(106.503369, 49.979285) scale(1, -1) translate(-106.503369, -49.979285) "></path>
                    <path d="M114.818801,51.277537 C114.929925,52.0320165 115.138528,52.6597746 115.460206,53.149114 C115.945646,53.8918962 116.686478,54.2993541 117.727543,54.2993541 C118.768608,54.2993541 119.456802,53.8899466 119.950041,53.149114 C120.277567,52.6597746 120.419885,52.0047226 120.476422,51.277537 L114.818801,51.277537 Z M122.708668,52.9366121 C122.509812,53.6871924 122.016574,54.4455711 121.692947,54.7925926 C121.182163,55.3423684 120.683075,55.7264316 120.187887,55.9408831 C119.540633,56.2177206 118.764709,56.4009792 117.914701,56.4009792 C116.924325,56.4009792 116.025578,56.2352666 115.296443,55.8921442 C114.565358,55.5490217 113.951247,55.0811274 113.469705,54.4982092 C112.988164,53.9172405 112.625546,53.2251468 112.395498,52.4394744 C112.163501,51.6577011 112.046527,50.8057436 112.046527,49.9069967 C112.046527,48.9926533 112.1674,48.1406958 112.407195,47.374519 C112.648941,46.6024934 113.034954,45.9220972 113.557436,45.3586745 C114.077968,44.7913527 114.748616,44.3468532 115.551835,44.0368732 C116.349205,43.7288428 117.318136,43.5689789 118.431334,43.5709285 C120.722066,43.5787267 121.928844,44.0895113 122.425981,44.3643992 C122.513712,44.4131382 122.597543,44.4989188 122.492266,44.7445633 L121.973684,46.1969851 C121.895701,46.4133862 121.675401,46.3334542 121.675401,46.3334542 C121.108079,46.1229018 120.300962,45.7446873 118.419637,45.7485864 C117.189465,45.750536 116.277071,46.113154 115.70585,46.6804758 C115.119033,47.2614445 114.832447,48.1153516 114.781759,49.3201793 L122.714516,49.3123811 C122.714516,49.3123811 122.923119,49.3162802 122.944564,49.5190344 C122.952362,49.604815 123.217503,51.148866 122.708668,52.9366121 Z"
                          id="path3025" fill="#FFFFFF"
                          transform="translate(117.533516, 49.985945) scale(1, -1) translate(-117.533516, -49.985945) "></path>
                    <path d="M51.2888988,51.277537 C51.4019732,52.0320165 51.6086265,52.6597746 51.9303038,53.149114 C52.4157441,53.8918962 53.1565767,54.2993541 54.1976415,54.2993541 C55.2387062,54.2993541 55.9269007,53.8899466 56.4220888,53.149114 C56.7476652,52.6597746 56.8899831,52.0047226 56.9465203,51.277537 L51.2888988,51.277537 Z M59.1768163,52.9366121 C58.9779612,53.6871924 58.4866722,54.4455711 58.1630454,54.7925926 C57.6522608,55.3423684 57.1531736,55.7264316 56.6579855,55.9408831 C56.0107318,56.2177206 55.2348071,56.4009792 54.3847992,56.4009792 C53.3963725,56.4009792 52.4956761,56.2352666 51.7665409,55.8921442 C51.0354561,55.5490217 50.4213448,55.0811274 49.9398037,54.4982092 C49.4582625,53.9172405 49.0956444,53.2251468 48.8655964,52.4394744 C48.6355484,51.6577011 48.5166253,50.8057436 48.5166253,49.9069967 C48.5166253,48.9926533 48.637498,48.1406958 48.8772938,47.374519 C49.1190391,46.6024934 49.5050519,45.9220972 50.0275338,45.3586745 C50.5480662,44.7913527 51.2187147,44.3468532 52.0219331,44.0368732 C52.8193029,43.7288428 53.788234,43.5689789 54.9014324,43.5709285 C57.1921648,43.5787267 58.3989421,44.0895113 58.8960797,44.3643992 C58.9838099,44.4131382 59.067641,44.4989188 58.9623647,44.7445633 L58.4457315,46.1969851 C58.3657996,46.4133862 58.1454993,46.3334542 58.1454993,46.3334542 C57.5781775,46.1229018 56.7730095,45.7446873 54.8877855,45.7485864 C53.6595631,45.750536 52.7471693,46.113154 52.1759483,46.6804758 C51.5891309,47.2614445 51.3025457,48.1153516 51.2518572,49.3201793 L59.1846145,49.3123811 C59.1846145,49.3123811 59.3932174,49.3162802 59.4146625,49.5190344 C59.4224608,49.604815 59.6876009,51.148866 59.1768163,52.9366121 Z"
                          id="path3029" fill="#FFFFFF"
                          transform="translate(54.003483, 49.985945) scale(1, -1) translate(-54.003483, -49.985945) "></path>
                    <path d="M34.1423281,46.0805587 C33.8323481,46.3281527 33.7894578,46.3905386 33.6841816,46.5504025 C33.5282169,46.7940974 33.4482849,47.141119 33.4482849,47.5817195 C33.4482849,48.2796617 33.6783329,48.7806985 34.155975,49.1179723 C34.1501263,49.1160227 34.8383208,49.7125879 36.4564551,49.6911428 C37.5930483,49.6755463 38.6087688,49.5078842 38.6087688,49.5078842 L38.6087688,45.9011992 L38.6107183,45.9011992 C38.6107183,45.9011992 37.6027961,45.6847981 36.4681525,45.6165635 C34.8539173,45.5190856 34.1364794,46.0825082 34.1423281,46.0805587 M37.2986648,51.6543491 C36.9769875,51.6777438 36.5597818,51.6913908 36.0606946,51.6913908 C35.3802983,51.6913908 34.7232968,51.6056101 34.107236,51.4398976 C33.4872761,51.274185 32.9297021,51.0148936 32.4501105,50.6717712 C31.9685693,50.3266991 31.580607,49.8860987 31.2998704,49.3636168 C31.0191339,48.8411349 30.876816,48.2250741 30.876816,47.53493 C30.876816,46.8330886 30.9976887,46.2228765 31.2394341,45.7237893 C31.4811794,45.2227525 31.8301506,44.8055468 32.2746501,44.4838695 C32.7152506,44.1621922 33.2591777,43.9262955 33.8908349,43.7839777 C34.5127444,43.6416598 35.2184849,43.5695261 35.9905104,43.5695261 C36.8034767,43.5695261 37.6144934,43.6358112 38.4001659,43.7703308 C39.1780401,43.9029008 40.1333242,44.0959072 40.3984643,44.1563435 C40.6616548,44.2187294 40.9540888,44.2986614 40.9540888,44.2986614 C41.1509943,44.3474003 41.1353978,44.5579528 41.1353978,44.5579528 L41.1314987,51.8122634 C41.1314987,53.4031039 40.7064947,54.5825874 39.8701337,55.3136722 C39.0376718,56.0428074 37.8113989,56.4112742 36.2264071,56.4112742 C35.6317915,56.4112742 34.6745578,56.3293927 34.1013873,56.2143687 C34.1013873,56.2143687 32.368229,55.8790444 31.6546902,55.3214704 C31.6546902,55.3214704 31.4987255,55.2239925 31.5845061,55.0056418 L32.1459792,53.4966828 C32.2161634,53.3017269 32.4052706,53.3680119 32.4052706,53.3680119 C32.4052706,53.3680119 32.465707,53.3914066 32.5358911,53.4323473 C34.0623961,54.2628597 35.99246,54.2375154 35.99246,54.2375154 C36.8502661,54.2375154 37.5092172,54.0659542 37.9537168,53.7247812 C38.386519,53.3933561 38.6068192,52.8923194 38.6068192,51.8356582 L38.6068192,51.5003339 C37.9244734,51.5978119 37.2986648,51.6543491 37.2986648,51.6543491"
                          id="path3033" fill="#FFFFFF" fill-rule="nonzero"
                          transform="translate(36.006253, 49.990400) scale(1, -1) translate(-36.006253, -49.990400) "></path>
                    <path d="M101.279698,55.2247708 C101.340134,55.4041302 101.213413,55.4899108 101.160775,55.5094064 C101.026255,55.5620445 100.351708,55.7043624 99.8311753,55.7375049 C98.8349505,55.7979412 98.2812756,55.6302791 97.7860875,55.4080293 C97.2947985,55.1857796 96.7489219,54.8270606 96.4447906,54.4196027 L96.4447906,55.3846346 C96.4447906,55.5191542 96.3492622,55.62638 96.2166921,55.62638 L94.1833017,55.62638 C94.0507316,55.62638 93.9552032,55.5191542 93.9552032,55.3846346 L93.9552032,43.5527584 C93.9552032,43.4201884 94.0643785,43.311013 94.1969486,43.311013 L96.2810276,43.311013 C96.4135976,43.311013 96.5208234,43.4201884 96.5208234,43.5527584 L96.5208234,49.4638226 C96.5208234,50.2572933 96.6085536,51.0488144 96.7840139,51.5459521 C96.9555752,52.0372411 97.1895223,52.4310521 97.4780571,52.7137382 C97.7685415,52.9944748 98.098017,53.1913803 98.4586855,53.3025051 C98.8271522,53.4155796 99.2346102,53.4526212 99.523145,53.4526212 C99.9384011,53.4526212 100.394598,53.3453955 100.394598,53.3453955 C100.546664,53.3278494 100.632444,53.4214283 100.683133,53.559847 C100.819602,53.9224651 101.205615,55.0083697 101.279698,55.2247708"
                          id="path3037" fill="#FFFFFF"
                          transform="translate(97.625441, 49.530483) scale(1, -1) translate(-97.625441, -49.530483) "></path>
                    <path d="M81.7182823,62.0791098 C81.4648237,62.1570922 81.2347613,62.2097303 80.9345104,62.2662675 C80.6303601,62.3208552 80.2677193,62.348149 79.8563366,62.348149 C78.4213711,62.348149 77.2905559,61.9426407 76.4970356,61.1433213 C75.7074146,60.3479011 75.1712523,59.1372246 74.9021962,57.5444346 L74.8047122,57.0083057 L73.0032066,57.0083057 C73.0032066,57.0083057 72.7848423,57.016104 72.7380499,56.7782577 L72.4436481,55.1269809 C72.4222016,54.9710161 72.4904404,54.8715886 72.701006,54.8715886 L74.4537695,54.8715886 L72.6756601,44.9444319 C72.5372328,44.1451126 72.3773589,43.488111 72.1999379,42.9890238 C72.0264162,42.4977348 71.856794,42.1292681 71.6462284,41.8602289 C71.4434615,41.602887 71.2523927,41.4118302 70.9209469,41.3007053 C70.6479915,41.209076 70.3321431,41.1661857 69.9870495,41.1661857 C69.7959808,41.1661857 69.5405725,41.1973787 69.3514534,41.2363699 C69.164284,41.2734115 69.0648503,41.3143522 68.9225235,41.3747886 C68.9225235,41.3747886 68.717807,41.452771 68.6359204,41.2480672 C68.5715809,41.0784556 68.1036574,39.7936959 68.0471166,39.6357816 C67.9925255,39.4778673 68.0705128,39.355045 68.1699465,39.3180034 C68.4039083,39.2361219 68.5774299,39.1815342 68.895228,39.1055014 C69.335856,39.0021748 69.7082451,38.9963261 70.0572381,38.9963261 C70.7864189,38.9963261 71.4532099,39.0996527 72.0049697,39.2985078 C72.5586793,39.4993124 73.0422002,39.8482835 73.4711301,40.3200769 C73.9332046,40.8308615 74.2237071,41.3650408 74.5005619,42.0961256 C74.775467,42.8174626 75.0113784,43.7142599 75.1985478,44.7592238 L76.9864056,54.8715886 L79.5989786,54.8715886 C79.5989786,54.8715886 79.8192926,54.8637903 79.8641353,55.1035862 L80.1604869,56.7529134 C80.1799837,56.9108278 80.1136945,57.0083057 79.9011792,57.0083057 L77.3646438,57.0083057 C77.3782916,57.064843 77.4933228,57.9577412 77.7838253,58.7980013 C77.9086049,59.1547707 78.1425667,59.445255 78.3394845,59.6441101 C78.5344526,59.839066 78.758666,59.9774848 79.0043258,60.0574167 C79.2558347,60.1392982 79.5424379,60.1782894 79.8563366,60.1782894 C80.0941977,60.1782894 80.3301091,60.1509955 80.5075301,60.1139539 C80.75319,60.0613158 80.8487244,60.034022 80.9130639,60.0145264 C81.1723715,59.936544 81.2074657,60.0125768 81.2581575,60.1373486 L81.8645084,61.8022724 C81.9268982,61.9816319 81.7728733,62.0576647 81.7182823,62.0791098"
                          id="path3041" fill="#FFFFFF"
                          transform="translate(74.954135, 50.672238) scale(1, -1) translate(-74.954135, -50.672238) "></path>
                    <path d="M46.2793114,39.5494451 C46.2793114,39.416875 46.183783,39.3096493 46.051213,39.3096493 L43.9476383,39.3096493 C43.8150683,39.3096493 43.7214894,39.416875 43.7214894,39.5494451 L43.7214894,56.4794192 C43.7214894,56.6119893 43.8150683,56.719215 43.9476383,56.719215 L46.051213,56.719215 C46.183783,56.719215 46.2793114,56.6119893 46.2793114,56.4794192 L46.2793114,39.5494451 Z"
                          id="path3045" fill="#FFFFFF"
                          transform="translate(45.000400, 48.014432) scale(1, -1) translate(-45.000400, -48.014432) "></path>
                </g>
            </g>
        </g>
    </g>
</svg>